<?xml version="1.0" encoding="UTF-8" standalone="no"?>
<!-- Created with Inkscape (http://www.inkscape.org/) -->

<svg
   xmlns:dc="http://purl.org/dc/elements/1.1/"
   xmlns:cc="http://creativecommons.org/ns#"
   xmlns:rdf="http://www.w3.org/1999/02/22-rdf-syntax-ns#"
   xmlns:svg="http://www.w3.org/2000/svg"
   xmlns="http://www.w3.org/2000/svg"
   version="1.1"
   width="1000"
   height="1000"
   id="svg2999">
  <defs
     id="defs3001" />
  <metadata
     id="metadata3004">
    <rdf:RDF>
      <cc:Work
         rdf:about="">
        <dc:format>image/svg+xml</dc:format>
        <dc:type
           rdf:resource="http://purl.org/dc/dcmitype/StillImage" />
        <dc:title></dc:title>
      </cc:Work>
    </rdf:RDF>
  </metadata>
  <g
     transform="translate(0,-52.362183)"
     id="layer1">
    <path
       d="M 5.896331,1074.2807 999,88.02643 l 0,987.38707 z m 334.931429,-187.04072 -50.33554,-49.56795 -28.1754,26.05951 49.35397,51.88851 z M 840,912.36218 l 0,-314 -334.6292,314 z M 461.91581,843.70184 373.122,755.82662 l -28.38818,27.20962 88.54838,89.7124 z m 44.91976,-122.24704 -50.91739,-49.4223 -29.15697,28.52572 50.91739,49.4223 z m 121.08805,-43.46604 -88.66401,-89.75038 -28.51797,29.04716 88.54837,89.82357 z m 44.05571,-119.65858 -49.83649,-51.93721 -29.37381,28.17575 50.40628,49.77226 z m 121.95211,-46.01893 -88.54837,-89.7124 -28.63362,29.0468 88.79381,87.87522 z m 49.12591,-118.06055 -55.12354,-53.49727 -27.47386,30.61582 54.40108,52.4024 z"
       id="path3076"
       style="fill:#141414" />
  </g>
</svg>
