<?xml version="1.0" encoding="UTF-8" standalone="no"?>
<!-- Generator: Adobe Illustrator 16.0.0, SVG Export Plug-In . SVG Version: 6.00 Build 0)  -->

<svg
   xmlns:dc="http://purl.org/dc/elements/1.1/"
   xmlns:cc="http://creativecommons.org/ns#"
   xmlns:rdf="http://www.w3.org/1999/02/22-rdf-syntax-ns#"
   xmlns:svg="http://www.w3.org/2000/svg"
   xmlns="http://www.w3.org/2000/svg"
   xmlns:sodipodi="http://sodipodi.sourceforge.net/DTD/sodipodi-0.dtd"
   xmlns:inkscape="http://www.inkscape.org/namespaces/inkscape"
   version="1.1"
   id="Layer_1"
   x="0px"
   y="0px"
   width="1000"
   height="1000"
   viewBox="0 0 1000 1000"
   enable-background="new 0 0 972 649.332"
   xml:space="preserve"
   inkscape:version="0.48.2 r9819"
   sodipodi:docname="email.svg"><metadata
   id="metadata9"><rdf:RDF><cc:Work
       rdf:about=""><dc:format>image/svg+xml</dc:format><dc:type
         rdf:resource="http://purl.org/dc/dcmitype/StillImage" /></cc:Work></rdf:RDF></metadata><defs
   id="defs7" /><sodipodi:namedview
   pagecolor="#ffffff"
   bordercolor="#666666"
   borderopacity="1"
   objecttolerance="10"
   gridtolerance="10"
   guidetolerance="10"
   inkscape:pageopacity="0"
   inkscape:pageshadow="2"
   inkscape:window-width="922"
   inkscape:window-height="633"
   id="namedview5"
   showgrid="false"
   inkscape:zoom="0.25607159"
   inkscape:cx="762.13636"
   inkscape:cy="342.51673"
   inkscape:window-x="241"
   inkscape:window-y="0"
   inkscape:window-maximized="0"
   inkscape:current-layer="Layer_1" />
<path
   style="fill:#404041"
   d="M 500,27 C 303.7858,24.277736 114.55202,150.3872 40.215779,331.74913 -37.394177,509.93005 2.7727516,731.27315 138.79442,870.27779 269.6697,1011.1348 485.28973,1062.525 665.83323,996.78578 852.98254,933.21511 990.9435,749.35783 998.35077,551.6468 1010.7744,359.46915 899.39316,167.36959 727.19583,81.588241 657.22962,45.635464 578.64494,26.880164 500,27 z M 732.42261,342.6353 C 652.84621,405.77654 573.26981,468.91777 493.69341,532.05901 414.1052,468.91777 334.51699,405.77654 254.92878,342.6353 c 159.16461,0 318.32922,0 477.49383,0 z M 223.4667,367.89889 c 56.08613,44.50358 112.17225,89.00717 168.25838,133.51075 -56.08613,56.0783 -112.17225,112.1566 -168.25838,168.2349 0,-100.58188 0,-201.16377 0,-301.74565 z m 22.3565,334.34381 c 58.83788,-58.84205 117.67576,-117.68411 176.51364,-176.52616 23.80833,17.95201 48.89208,40.60014 71.92346,55.77121 24.70671,-19.58252 49.41342,-39.16505 74.12013,-58.74757 59.78269,59.77512 119.56537,119.55024 179.34806,179.32536 -167.17881,0.11794 -335.34084,-0.23597 -501.90529,0.17716 z M 774.30119,673.71931 C 715.92391,615.33788 657.54662,556.95645 599.16934,498.57502 c 58.37728,-46.29885 116.75457,-92.59769 175.13185,-138.89654 0,104.68028 0,209.36055 0,314.04083 z"
   id="path3"
   inkscape:connector-curvature="0" />
</svg>