<?xml version="1.0" encoding="UTF-8" standalone="no"?>
<!-- Generator: Adobe Illustrator 16.0.0, SVG Export Plug-In . SVG Version: 6.00 Build 0)  -->

<svg
   xmlns:dc="http://purl.org/dc/elements/1.1/"
   xmlns:cc="http://creativecommons.org/ns#"
   xmlns:rdf="http://www.w3.org/1999/02/22-rdf-syntax-ns#"
   xmlns:svg="http://www.w3.org/2000/svg"
   xmlns="http://www.w3.org/2000/svg"
   xmlns:sodipodi="http://sodipodi.sourceforge.net/DTD/sodipodi-0.dtd"
   xmlns:inkscape="http://www.inkscape.org/namespaces/inkscape"
   version="1.1"
   id="Layer_1"
   x="0px"
   y="0px"
   width="1000"
   height="1000"
   viewBox="0 0 1000 1000"
   enable-background="new 0 0 972 649.332"
   xml:space="preserve"
   inkscape:version="0.48.2 r9819"
   sodipodi:docname="github.svg"><metadata
   id="metadata15"><rdf:RDF><cc:Work
       rdf:about=""><dc:format>image/svg+xml</dc:format><dc:type
         rdf:resource="http://purl.org/dc/dcmitype/StillImage" /></cc:Work></rdf:RDF></metadata><defs
   id="defs13" /><sodipodi:namedview
   pagecolor="#ffffff"
   bordercolor="#666666"
   borderopacity="1"
   objecttolerance="10"
   gridtolerance="10"
   guidetolerance="10"
   inkscape:pageopacity="0"
   inkscape:pageshadow="2"
   inkscape:window-width="1019"
   inkscape:window-height="821"
   id="namedview11"
   showgrid="false"
   inkscape:zoom="1.4485597"
   inkscape:cx="357.37943"
   inkscape:cy="282.92489"
   inkscape:window-x="233"
   inkscape:window-y="0"
   inkscape:window-maximized="0"
   inkscape:current-layer="Layer_1" />
<g
   id="g3"
   transform="matrix(34.909503,0,0,34.907044,-29035.15,-7661.2728)">
	<path
   style="fill:#404041"
   d="m 844.326,231.905 c 0.40012,0.31967 0.94275,0.39258 1.43931,0.34589 0.34579,-0.0374 0.6947,-0.13743 0.97769,-0.34589 0.27993,-0.56965 0.47066,-1.24126 0.27926,-1.86872 -0.15761,-0.53816 -0.64364,-0.94108 -1.18766,-1.04642 -0.57292,-0.1256 -1.23489,0.0605 -1.58338,0.55117 -0.33379,0.46149 -0.33091,1.07745 -0.19511,1.60855 0.0647,0.25996 0.15885,0.51189 0.26989,0.75542 z"
   id="path5"
   inkscape:connector-curvature="0" />
	<path
   d="m 846.104,220.25 c -7.895,-0.03 -14.319,6.347 -14.349,14.242 -0.03,7.895 6.346,14.319 14.241,14.348 7.895,0.031 14.317,-6.345 14.347,-14.24 0.029,-7.897 -6.346,-14.321 -14.239,-14.35 z m 4.331,8.854 c -0.355,0.068 -0.662,0.188 -1.018,0.256 0.629,1.767 -0.312,4.068 -1.91,4.836 -0.849,0.407 -2.248,0.247 -2.29,1.274 -0.06,1.468 3.811,1.607 4.581,2.544 0.848,1.025 0.713,3.249 -0.254,4.327 -1.384,1.544 -6.104,1.655 -7.637,0 -1.261,-1.359 -0.824,-4.693 1.526,-4.963 -0.998,-0.353 -1.06,-2.824 -0.127,-3.309 -3.62,-2.338 -2.039,-8.168 2.929,-7.509 1.125,0.148 2.686,0.952 4.199,0 v 2.544 z"
   id="path7"
   inkscape:connector-curvature="0"
   style="fill:#404041" />
	<path
   style="fill:#404041"
   d="m 843.815,240.561 c 0.14434,0.40769 0.56406,0.62428 0.95526,0.73953 0.65379,0.18107 1.36672,0.16501 2.00714,-0.0622 0.43677,-0.15669 0.86554,-0.47594 0.96379,-0.95388 0.0946,-0.45434 -0.0742,-0.97417 -0.47498,-1.23019 -0.46382,-0.30189 -1.04638,-0.32659 -1.58163,-0.2784 -0.47911,0.0524 -0.95415,0.16778 -1.39877,0.35488 -0.27784,0.11612 -0.54551,0.34077 -0.58147,0.65751 -0.0364,0.26183 0.0304,0.52534 0.11066,0.77279 z"
   id="path9"
   inkscape:connector-curvature="0" />
</g>
</svg>