<?xml version="1.0" encoding="UTF-8" standalone="no"?>
<!-- Created with Inkscape (http://www.inkscape.org/) -->

<svg
   xmlns:dc="http://purl.org/dc/elements/1.1/"
   xmlns:cc="http://creativecommons.org/ns#"
   xmlns:rdf="http://www.w3.org/1999/02/22-rdf-syntax-ns#"
   xmlns:svg="http://www.w3.org/2000/svg"
   xmlns="http://www.w3.org/2000/svg"
   version="1.1"
   width="1000"
   height="1000"
   viewBox="0 0 1000 1000"
   id="Layer_1"
   xml:space="preserve"><metadata
   id="metadata15"><rdf:RDF><cc:Work
       rdf:about=""><dc:format>image/svg+xml</dc:format><dc:type
         rdf:resource="http://purl.org/dc/dcmitype/StillImage" /><dc:title></dc:title></cc:Work></rdf:RDF></metadata><defs
   id="defs13" />
<g
   transform="translate(-614.708,452.447)"
   id="g6">
  
  <path
   d="m 1114.6728,-425.37654 c -275.55089,0 -498.9648,223.4139 -498.9648,498.964768 0,275.550862 223.41391,498.964772 498.9648,498.964772 275.5861,0 499.0352,-223.41391 499.0352,-498.964772 0,-275.550868 -223.4491,-498.964768 -499.0352,-498.964768 z m 189.6305,514.641083 -91.9794,159.334767 -97.792,169.33943 -97.7921,-169.33943 -97.75676,-169.409882 0.31705,0 c -0.24659,-0.352277 -0.45796,-0.704554 -0.66932,-1.021603 -17.29679,-31.775362 -27.16054,-68.2007763 -27.16054,-106.91599 0,-123.296855 99.97614,-223.272995 223.27297,-223.272995 123.3673,0 223.3435,99.97614 223.3435,223.272995 -0.071,43.365267 -12.4706,83.736181 -33.7834,118.012708 z M 1114.6728,-114.31618 c -47.2051,0 -85.568,38.327705 -85.568,85.603243 0.1966,47.656683 47.0465,84.797987 85.568,85.603247 47.2755,0 85.6384,-38.327709 85.6384,-85.603247 0,-47.275538 -38.3629,-85.603243 -85.6384,-85.603243 z"
   id="path10" />
</g>
</svg>