<?xml version="1.0" encoding="utf-8"?> <!-- Generator: IcoMoon.io --> <!DOCTYPE svg PUBLIC "-//W3C//DTD SVG 1.1//EN" "http://www.w3.org/Graphics/SVG/1.1/DTD/svg11.dtd"> <svg width="894" height="2048" viewBox="0 0 894 2048" xmlns="http://www.w3.org/2000/svg" xmlns:xlink="http://www.w3.org/1999/xlink"><g><line x1="128" x2="128" y1="0" y2="2048" stroke="#B35047"></line><line x1="256" x2="256" y1="0" y2="2048" stroke="#B35047"></line><line x1="384" x2="384" y1="0" y2="2048" stroke="#B35047"></line><line x1="512" x2="512" y1="0" y2="2048" stroke="#B35047"></line><line x1="640" x2="640" y1="0" y2="2048" stroke="#B35047"></line><line x1="768" x2="768" y1="0" y2="2048" stroke="#B35047"></line><line x1="0" x2="894" y1="128" y2="128" stroke="#B35047"></line><line x1="0" x2="894" y1="256" y2="256" stroke="#B35047"></line><line x1="0" x2="894" y1="384" y2="384" stroke="#B35047"></line><line x1="0" x2="894" y1="512" y2="512" stroke="#B35047"></line><line x1="0" x2="894" y1="640" y2="640" stroke="#B35047"></line><line x1="0" x2="894" y1="768" y2="768" stroke="#B35047"></line><line x1="0" x2="894" y1="896" y2="896" stroke="#B35047"></line><line x1="0" x2="894" y1="1024" y2="1024" stroke="#B35047"></line><line x1="0" x2="894" y1="1152" y2="1152" stroke="#B35047"></line><line x1="0" x2="894" y1="1280" y2="1280" stroke="#B35047"></line><line x1="0" x2="894" y1="1408" y2="1408" stroke="#B35047"></line><line x1="0" x2="894" y1="1536" y2="1536" stroke="#B35047"></line><line x1="0" x2="894" y1="1664" y2="1664" stroke="#B35047"></line><line x1="0" x2="894" y1="1792" y2="1792" stroke="#B35047"></line><line x1="0" x2="894" y1="1920" y2="1920" stroke="#B35047"></line><rect x="0" y="0" width="894" height="2048" fill="none" stroke="#B35047"></rect></g><path d="M 2.00,1151.00l0.00,-484.00 q0.00-18.00 12.50-30.50t 30.50-12.50l225.00,0.00 q 41.00,0.00 72.00-26.00l 494.00-420.00q 10.00-10.00 18.00-10.00q 16.00,0.00 16.00,24.00l0.00,1432.00 q0.00,25.00 -16.00,24.00q-10.00,0.00 -18.00-8.00l-494.00-420.00q-31.00-27.00 -72.00-26.00l-225.00,0.00 q-18.00,0.00 -30.50-13.50t-12.50-29.50z" ></path></svg>