<?xml version="1.0" encoding="UTF-8" standalone="no"?>
<!-- Generator: Adobe Illustrator 16.0.0, SVG Export Plug-In . SVG Version: 6.00 Build 0)  -->

<svg
   xmlns:dc="http://purl.org/dc/elements/1.1/"
   xmlns:cc="http://creativecommons.org/ns#"
   xmlns:rdf="http://www.w3.org/1999/02/22-rdf-syntax-ns#"
   xmlns:svg="http://www.w3.org/2000/svg"
   xmlns="http://www.w3.org/2000/svg"
   xmlns:sodipodi="http://sodipodi.sourceforge.net/DTD/sodipodi-0.dtd"
   xmlns:inkscape="http://www.inkscape.org/namespaces/inkscape"
   version="1.1"
   id="Layer_1"
   x="0px"
   y="0px"
   width="1000"
   height="1000"
   viewBox="0 0 1000 1000"
   enable-background="new 0 0 972 649.332"
   xml:space="preserve"
   inkscape:version="0.48.2 r9819"
   sodipodi:docname="octocat.svg"><metadata
   id="metadata9"><rdf:RDF><cc:Work
       rdf:about=""><dc:format>image/svg+xml</dc:format><dc:type
         rdf:resource="http://purl.org/dc/dcmitype/StillImage" /></cc:Work></rdf:RDF></metadata><defs
   id="defs7" /><sodipodi:namedview
   pagecolor="#ffffff"
   bordercolor="#666666"
   borderopacity="1"
   objecttolerance="10"
   gridtolerance="10"
   guidetolerance="10"
   inkscape:pageopacity="0"
   inkscape:pageshadow="2"
   inkscape:window-width="1165"
   inkscape:window-height="857"
   id="namedview5"
   showgrid="false"
   inkscape:zoom="1.4485597"
   inkscape:cx="548.6364"
   inkscape:cy="299.05195"
   inkscape:window-x="69"
   inkscape:window-y="0"
   inkscape:window-maximized="0"
   inkscape:current-layer="Layer_1" />
	 <path
   d="M 500,27 C 224.43284,27 1,250.43284 1,526 c 0,275.56716 223.43284,499 499,499 251.24013,0 459.01179,-185.7416 493.81441,-427.3762 3.34105,-16.49645 4.90717,-33.48013 4.62875,-50.98584 C 998.79118,539.78184 999,532.89092 999,526 999,250.43284 775.56716,27 500,27 z m 355.02155,535.89078 c 1.21809,0.38283 1.91415,1.67053 1.56612,2.88862 -0.80748,1.33167 -1.59483,1.63572 -2.88862,1.63572 -60.55656,-18.51499 -135.417,-21.05559 -160.33568,-21.92565 -37.59076,54.64505 -84.48174,67.18011 -137.88799,72.77228 23.31776,14.68671 29.96506,33.0973 29.96506,82.79544 0,49.73295 -0.69605,56.41505 -0.55684,67.83031 0.27842,18.75862 27.80729,27.8073 26.79802,33.82815 -1.07889,6.02085 -23.03934,5.08118 -33.30611,1.49651 -29.1646,-10.19716 -26.24118,-34.41979 -26.24118,-34.41979 l -0.93967,-66.47301 c 0,0 1.98375,-35.8119 -11.34566,-35.8119 l 0,108.89741 c 0,23.66578 16.70526,30.86992 16.70526,39.60538 0,15.06954 -30.38269,-1.42691 -39.64019,-10.85842 -14.19947,-14.23427 -12.56374,-44.51255 -12.32012,-68.38715 0.34802,-23.10894 -0.20882,-73.67715 -0.20882,-73.67715 l -9.57072,0.34803 c 0,0 3.9327,110.42872 -5.08118,130.50983 -11.69368,25.82355 -46.98354,34.73302 -46.98354,22.90013 0,-7.9002 8.63105,-5.32481 13.46861,-23.10895 4.14151,-15.06953 2.71461,-127.58641 2.71461,-127.58641 0,0 -11.27605,6.6473 -11.27605,27.77249 0,9.60553 -0.27843,64.73288 -0.27843,81.12492 0,20.67275 -29.3038,32.40124 -43.36406,32.40124 -7.13454,0 -16.04401,-0.34803 -16.04401,-4.14151 0,-9.53592 26.79802,-15.13915 26.79802,-34.97664 0,-17.2273 -0.34803,-61.53104 -0.34803,-61.53104 0,0 -13.53822,2.29698 -32.74927,2.29698 -48.58446,0 -64.03682,-30.97434 -71.31057,-48.34085 -9.50112,-22.5521 -21.89085,-33.2017 -34.94183,-41.69354 -8.07421,-5.18559 -9.91875,-11.31085 -0.62645,-13.12059 43.01604,-8.0394 54.04847,48.79328 82.72583,57.87676 20.53355,6.47329 46.84433,3.65428 59.96492,-4.83756 1.70533,-17.40131 14.26908,-32.43604 24.67506,-40.30144 -54.18246,-8.57398 -115.59455,-33.19084 -138.82766,-73.32912 -76.39176,1.84454 -119.75582,12.66815 -151.56542,20.63795 -2.42796,0.44929 -8.56333,2.81883 -9.19603,1.02873 -0.83807,-1.69761 7.79587,-3.90863 10.55787,-4.57678 31.67039,-7.9698 72.31531,-19.7349 147.837,-21.75345 -2.12296,-4.17632 -4.0023,-8.45704 -5.70763,-12.94658 -29.30381,-0.34803 -119.75582,3.9327 -150.76496,11.58927 -1.28913,0.0211 -2.5874,-0.75974 -2.85381,-1.77493 -0.27842,-1.25289 0.48723,-2.50579 1.70533,-2.85381 30.73071,-7.55217 119.02496,-11.76329 150.27772,-11.69369 -6.99533,-20.70756 -10.12756,-44.37334 -10.12756,-70.89294 0,-47.01834 14.6171,-64.69807 34.31538,-89.82557 -15.10434,-53.59603 5.35961,-90.20839 5.35961,-90.20839 0,0 31.60078,-6.5429 91.35688,36.22953 32.43604,-13.81664 118.74655,-15.06954 159.67443,-3.06263 25.09269,-16.63566 70.96255,-40.09262 89.44274,-33.51493 5.04638,8.07421 15.83519,31.56598 6.5777,83.24787 6.26447,11.34566 38.94413,35.49868 39.01374,103.71182 -0.48724,25.16229 -3.13224,46.4267 -7.9698,64.38485 77.88826,-0.62645 123.72332,5.81204 155.3241,11.58927 1.21809,0.34803 2.12296,1.46171 1.91414,2.74941 -0.76379,1.32502 -1.3919,1.88848 -2.7146,1.91414 -31.60078,-5.81203 -77.43584,-12.25052 -155.88095,-11.48486 -1.3573,4.55914 -2.92342,8.83987 -4.62875,13.05098 26.72842,0.87007 100.05754,3.72388 159.74404,21.96046 z"
   id="path3"
   inkscape:connector-curvature="0"
   style="fill:#404041"
   sodipodi:nodetypes="sssccsscccccsccccccsscccccsccssssscsccccccccccccccccsccccccccccccccc" />
</svg>