<?xml version="1.0" encoding="utf-8"?> <!-- Generator: IcoMoon.io --> <!DOCTYPE svg PUBLIC "-//W3C//DTD SVG 1.1//EN" "http://www.w3.org/Graphics/SVG/1.1/DTD/svg11.dtd"> <svg width="1000" height="1000" viewBox="0 0 1000 1000" xmlns="http://www.w3.org/2000/svg" xmlns:xlink="http://www.w3.org/1999/xlink"><g><line x1="40" x2="40" y1="0" y2="1000" stroke="#B35047"></line><line x1="80" x2="80" y1="0" y2="1000" stroke="#B35047"></line><line x1="120" x2="120" y1="0" y2="1000" stroke="#B35047"></line><line x1="160" x2="160" y1="0" y2="1000" stroke="#B35047"></line><line x1="200" x2="200" y1="0" y2="1000" stroke="#B35047"></line><line x1="240" x2="240" y1="0" y2="1000" stroke="#B35047"></line><line x1="280" x2="280" y1="0" y2="1000" stroke="#B35047"></line><line x1="320" x2="320" y1="0" y2="1000" stroke="#B35047"></line><line x1="360" x2="360" y1="0" y2="1000" stroke="#B35047"></line><line x1="400" x2="400" y1="0" y2="1000" stroke="#B35047"></line><line x1="440" x2="440" y1="0" y2="1000" stroke="#B35047"></line><line x1="480" x2="480" y1="0" y2="1000" stroke="#B35047"></line><line x1="520" x2="520" y1="0" y2="1000" stroke="#B35047"></line><line x1="560" x2="560" y1="0" y2="1000" stroke="#B35047"></line><line x1="600" x2="600" y1="0" y2="1000" stroke="#B35047"></line><line x1="640" x2="640" y1="0" y2="1000" stroke="#B35047"></line><line x1="680" x2="680" y1="0" y2="1000" stroke="#B35047"></line><line x1="720" x2="720" y1="0" y2="1000" stroke="#B35047"></line><line x1="760" x2="760" y1="0" y2="1000" stroke="#B35047"></line><line x1="800" x2="800" y1="0" y2="1000" stroke="#B35047"></line><line x1="840" x2="840" y1="0" y2="1000" stroke="#B35047"></line><line x1="880" x2="880" y1="0" y2="1000" stroke="#B35047"></line><line x1="920" x2="920" y1="0" y2="1000" stroke="#B35047"></line><line x1="960" x2="960" y1="0" y2="1000" stroke="#B35047"></line><line x1="0" x2="1000" y1="40" y2="40" stroke="#B35047"></line><line x1="0" x2="1000" y1="80" y2="80" stroke="#B35047"></line><line x1="0" x2="1000" y1="120" y2="120" stroke="#B35047"></line><line x1="0" x2="1000" y1="160" y2="160" stroke="#B35047"></line><line x1="0" x2="1000" y1="200" y2="200" stroke="#B35047"></line><line x1="0" x2="1000" y1="240" y2="240" stroke="#B35047"></line><line x1="0" x2="1000" y1="280" y2="280" stroke="#B35047"></line><line x1="0" x2="1000" y1="320" y2="320" stroke="#B35047"></line><line x1="0" x2="1000" y1="360" y2="360" stroke="#B35047"></line><line x1="0" x2="1000" y1="400" y2="400" stroke="#B35047"></line><line x1="0" x2="1000" y1="440" y2="440" stroke="#B35047"></line><line x1="0" x2="1000" y1="480" y2="480" stroke="#B35047"></line><line x1="0" x2="1000" y1="520" y2="520" stroke="#B35047"></line><line x1="0" x2="1000" y1="560" y2="560" stroke="#B35047"></line><line x1="0" x2="1000" y1="600" y2="600" stroke="#B35047"></line><line x1="0" x2="1000" y1="640" y2="640" stroke="#B35047"></line><line x1="0" x2="1000" y1="680" y2="680" stroke="#B35047"></line><line x1="0" x2="1000" y1="720" y2="720" stroke="#B35047"></line><line x1="0" x2="1000" y1="760" y2="760" stroke="#B35047"></line><line x1="0" x2="1000" y1="800" y2="800" stroke="#B35047"></line><line x1="0" x2="1000" y1="840" y2="840" stroke="#B35047"></line><line x1="0" x2="1000" y1="880" y2="880" stroke="#B35047"></line><line x1="0" x2="1000" y1="920" y2="920" stroke="#B35047"></line><line x1="0" x2="1000" y1="960" y2="960" stroke="#B35047"></line><rect x="0" y="0" width="1000" height="1000" fill="none" stroke="#B35047"></rect></g><path d="M 188.00,827.00l-83.00-83.00l 187.00-187.00l 83.00,83.00zM 812.00,37.00l 83.00,83.00l-187.00,187.00l-83.00-83.00zM 812.00,827.00l-187.00-187.00l 83.00-83.00l 187.00,187.00zM 292.00,307.00l-187.00-187.00l 83.00-83.00l 187.00,187.00zM0.00,373.00l265.00,0.00 l0.00,118.00 l-265.00,0.00 l0.00,-118.00 zM 735.00,491.00l0.00,-118.00 l265.00,0.00 l0.00,118.00 l-265.00,0.00 zM 559.00,932.00l-118.00,0.00 l0.00,-265.00 l118.00,0.00 l0.00,265.00 z" ></path></svg>