<?xml version="1.0" encoding="utf-8"?>
<!-- Generator: Adobe Illustrator 12.0.1, SVG Export Plug-In . SVG Version: 6.00 Build 51448)  -->
<!DOCTYPE svg PUBLIC "-//W3C//DTD SVG 1.1//EN" "http://www.w3.org/Graphics/SVG/1.1/DTD/svg11.dtd" [
	<!ENTITY ns_svg "http://www.w3.org/2000/svg">
	<!ENTITY ns_xlink "http://www.w3.org/1999/xlink">
]>
<svg  version="1.1"
	 id="Layer_1" xmlns:dc="http://purl.org/dc/elements/1.1/" xmlns:cc="http://creativecommons.org/ns#" xmlns:sodipodi="http://sodipodi.sourceforge.net/DTD/sodipodi-0.dtd" xmlns:svg="http://www.w3.org/2000/svg" inkscape:version="0.48.2 r9819" xmlns:rdf="http://www.w3.org/1999/02/22-rdf-syntax-ns#" xmlns:inkscape="http://www.inkscape.org/namespaces/inkscape" sodipodi:docname="github.svg"
	 xmlns="&ns_svg;" xmlns:xlink="&ns_xlink;" width="1000" height="1000" viewBox="0 0 1000 1000"
	 overflow="visible" enable-background="new 0 0 1000 1000" xml:space="preserve">
<sodipodi:namedview  inkscape:pageshadow="2" inkscape:window-height="821" inkscape:window-width="1019" id="namedview11" showgrid="false" inkscape:pageopacity="0" guidetolerance="10" gridtolerance="10" objecttolerance="10" borderopacity="1" bordercolor="#666666" pagecolor="#ffffff" inkscape:current-layer="Layer_1" inkscape:window-maximized="0" inkscape:window-y="0" inkscape:window-x="233" inkscape:cy="282.92489" inkscape:cx="357.37943" inkscape:zoom="1.4485597">
	</sodipodi:namedview>
<path fill="#404041" d="M500.035,27C224.392,27,0.968,250.424,0.968,526s223.424,499,499.067,499c275.576,0,499-223.424,499-499
	S775.611,27,500.035,27 M215.666,754.971l15.964-83.539c0.135-24.555,17.452-25.129,38.15-33.348l96.662-38.421
	c1.454-0.541,2.908-1.15,4.328-1.826l0.102-0.439l0.271-0.914l0.271-0.946c18.332-8.219,34.16-19.583,38.963-27.531
	c3.179-5.241,6.697-7.306,9.369-5.005c0.507,0.067,0.913,0.338,1.184,0.677c2.774-8.151,5.479-16.371,8.184-24.555
	c0.88-3.18,2.841-1.624,3.789,0.812l-2.131-8.389l-1.217-15.05c-1.895-1.962-3.382-3.619-4.396-4.735
	c-6.359-7.169-6.731-26.042-9.91-30.642c-3.213-4.6-9.47-5.614-15.795-27.057c-6.291-21.375-13.968-52.017-5.884-52.558
	c0.743,0,1.556,0.135,2.367,0.473c-0.508-2.976-1.15-3.043-1.793-7.238c-1.184-7.948-5.918-21.172-6.358-28.951
	c-0.846-17.316,3.551-66.29,13.461-82.659c9.943-16.335,25.366-30.101,47.62-35.073c19.447-4.329,76.875-8.016,95.038,0
	c6.121,2.638,13.63,6.562,21.104,11.364c12.479,7.88,25.096,17.959,31.252,28.139c9.942,16.302,12.851,60.878,11.972,78.195
	c-0.71,13.19-3.721,31.014-5.141,38.895c2.3-2.063,4.633-3.314,6.561-3.179c8.151,0.542,0.474,31.149-5.884,52.559
	c-6.291,21.442-12.582,22.457-15.761,27.057c-3.111,4.6-3.585,23.472-9.877,30.642c-0.98,1.082-2.4,2.638-4.193,4.531l-1.082,18.4
	c-0.677,10.146,2.063,0.71,3.077,4.396c0.677,1.961,4.939,15.287,7.577,22.354c1.082,2.842,0.574,4.33,3.179,2.978l0.136-0.136
	h0.067l0.102-0.101h0.033h0.102l0.136-0.068c2.131-0.71,4.769,1.015,7.339,4.836l0.033,0.068l0.169,0.202l0.068,0.136l0.237,0.338
	c0.27,0.508,0.608,1.015,0.913,1.488l0.067,0.136l0.237,0.236c5.546,7.576,20.698,18.297,37.879,26.043v0.067
	c1.691,0.676,3.382,1.42,5.04,2.029l96.627,38.421c20.699,8.219,38.016,8.793,38.117,33.348l21.544,83.539H215.666L215.666,754.971z
	"/>
</svg>
